<?xml version="1.0" ?><svg data-name="Слой 1" id="Слой_1" viewBox="0 0 32 32" xmlns="http://www.w3.org/2000/svg"><path d="M27.945,9.88h-.35V9.6a1.6339,1.6339,0,0,0-1.36-1.48.3334.3334,0,0,0-.15-.03h-.27V7.3a1.8478,1.8478,0,0,0-1.84-1.84H8.025A1.8413,1.8413,0,0,0,6.185,7.3v.79h-.28a.4014.4014,0,0,0-.15.03A1.6444,1.6444,0,0,0,4.395,9.6v.28h-.35a.337.337,0,0,0-.34.34v4.06a.3373.3373,0,0,0,.34.34h1.38a.346.346,0,0,0,.35-.34V10.22a.3457.3457,0,0,0-.35-.34h-.34V9.6c0-.45.55-.83,1-.83h.1V22.94a1.8316,1.8316,0,0,0,1.63,1.82v.67a1.1161,1.1161,0,0,0,1.12,1.11h2.24a1.1139,1.1139,0,0,0,1.11-1.11v-.65h7.56v.65a1.114,1.114,0,0,0,1.11,1.11h2.25a1.1139,1.1139,0,0,0,1.11-1.11v-.68a1.8458,1.8458,0,0,0,1.5-1.81V8.77h.09c.46,0,1.01.38,1.01.83v.28h-.35a.337.337,0,0,0-.34.34v4.06a.3373.3373,0,0,0,.34.34h1.38a.346.346,0,0,0,.35-.34V10.22A.3457.3457,0,0,0,27.945,9.88Zm-22.86,4.06h-.7V10.56h.7Zm1.78,6.65h1.77a1.4829,1.4829,0,0,0-.24.81,1.5425,1.5425,0,0,0,.24.82h-1.77Zm4.74,4.84a.4333.4333,0,0,1-.43.43H8.935a.4335.4335,0,0,1-.43-.43v-.65h3.1Zm12.03,0a.4333.4333,0,0,1-.43.43h-2.25a.4314.4314,0,0,1-.42-.43v-.65h3.1Zm1.5-3.21h-1.78a1.4671,1.4671,0,0,0,.25-.82,1.4115,1.4115,0,0,0-.25-.81h1.78Zm0-2.31h-3.03a1.4951,1.4951,0,0,0,0,2.99h3.03v.04a1.1608,1.1608,0,0,1-1.16,1.16H8.025a1.1608,1.1608,0,0,1-1.16-1.16V22.9h3.02a1.4951,1.4951,0,1,0,0-2.99h-3.02V16.34l2.3.91a.506.506,0,0,0,.13.02h13.41a.5011.5011,0,0,0,.12-.02l2.31-.91Zm-2.21,1.49a.8236.8236,0,0,1-.82.82.815.815,0,0,1-.81-.82.8065.8065,0,0,1,.81-.81A.8151.8151,0,0,1,22.925,21.4Zm-13.85,0a.8151.8151,0,0,1,1.63,0,.8151.8151,0,1,1-1.63,0Zm8.99-4.81a2.1447,2.1447,0,0,1,4.24,0Zm7.07-.98-2.16.84a2.8235,2.8235,0,0,0-5.59.14h-8.03l-2.49-.98V8.77h18.27Zm0-7.52H6.8649V7.3a1.1522,1.1522,0,0,1,1.16-1.15h15.95a1.1522,1.1522,0,0,1,1.16,1.15Zm2.47,5.85h-.7V10.56h.7Z" fill="#49942e" stroke="#49942e"/><path d="M10.3745,7.5h3.28a.3408.3408,0,1,0,0-.6816h-3.28a.3408.3408,0,1,0,0,.6816Z"  fill="#49942e" stroke="#49942e"/><path d="M8.7621,7.6307A.4718.4718,0,1,0,8.29,7.1588.4718.4718,0,0,0,8.7621,7.6307Z" fill="#49942e" stroke="#49942e"/><path d="M12.8779,18.7535a.341.341,0,0,0-.3413.3409v3.5468a.3413.3413,0,0,0,.6826,0V19.0944A.341.341,0,0,0,12.8779,18.7535Z" fill="#49942e" stroke="#49942e"/><path d="M14.9584,18.7535a.341.341,0,0,0-.3413.3409v3.5468a.3413.3413,0,0,0,.6826,0V19.0944A.341.341,0,0,0,14.9584,18.7535Z" fill="#49942e" stroke="#49942e"/><path d="M17.0385,18.7535a.341.341,0,0,0-.3413.3409v3.5468a.3413.3413,0,0,0,.6826,0V19.0944A.341.341,0,0,0,17.0385,18.7535Z" fill="#49942e" stroke="#49942e"/><path d="M19.1191,18.7535a.341.341,0,0,0-.3413.3409v3.5468a.3413.3413,0,0,0,.6826,0V19.0944A.341.341,0,0,0,19.1191,18.7535Z" fill="#49942e" stroke="#49942e"/><path d="M11.0444,12.5934a.3352.3352,0,0,0,.1792-.0508l2.6108-1.6152a.3412.3412,0,1,0-.3594-.58l-2.6108,1.6152a.3409.3409,0,0,0,.18.6309Z" fill="#49942e" stroke="#49942e"/><path d="M12.7045,12.778l-2.5034,1.4736a.3413.3413,0,0,0,.3467.5879l2.5034-1.4737a.3412.3412,0,0,0-.3467-.5878Z" fill="#49942e" stroke="#49942e"/><path d="M15.185,13.5026l-1.6826.8388a.3416.3416,0,1,0,.3047.6114l1.6826-.8389a.3415.3415,0,0,0-.3047-.6113Z"  fill="#49942e" stroke="#49942e"/></svg>