<svg id="Layer_1" height="512" viewBox="0 0 128 128" width="512" xmlns="http://www.w3.org/2000/svg" data-name="Layer 1"><path d="m94.694 9.626-14.9-3.2a74.751 74.751 0 0 0 -31.594 0l-14.9 3.2a13.823 13.823 0 0 0 -10.858 13.444v58.919a13.766 13.766 0 0 0 13.75 13.75h2.737l-10.22 25.1a1.75 1.75 0 0 0 3.242 1.32l2.61-6.41h58.878l2.61 6.41a1.75 1.75 0 1 0 3.242-1.32l-10.22-25.1h2.737a13.766 13.766 0 0 0 13.75-13.75v-58.919a13.823 13.823 0 0 0 -10.864-13.444zm-58.708 102.624 3.545-8.708h48.938l3.545 8.708zm51.058-12.208h-46.088l1.752-4.3h42.584zm15.014-18.053a10.261 10.261 0 0 1 -10.25 10.25h-55.616a10.261 10.261 0 0 1 -10.25-10.25v-58.919a10.305 10.305 0 0 1 8.1-10.022l14.9-3.2a71.308 71.308 0 0 1 30.125 0l14.9 3.2a10.305 10.305 0 0 1 8.1 10.022z"/><path d="m94.81 22.44h-61.62a1.751 1.751 0 0 0 -1.75 1.75v26.05a1.75 1.75 0 0 0 1.75 1.75h61.62a1.75 1.75 0 0 0 1.75-1.75v-26.05a1.751 1.751 0 0 0 -1.75-1.75zm-59.87 26.05v-22.55h58.12v22.55z"/><path d="m84.876 63.494a9.75 9.75 0 1 0 9.75 9.75 9.761 9.761 0 0 0 -9.75-9.75zm0 16a6.25 6.25 0 1 1 6.25-6.25 6.257 6.257 0 0 1 -6.25 6.25z"/><path d="m43.124 63.494a9.75 9.75 0 1 0 9.75 9.75 9.761 9.761 0 0 0 -9.75-9.75zm0 16a6.25 6.25 0 1 1 6.25-6.25 6.257 6.257 0 0 1 -6.25 6.25z"/><path d="m54 17.25h20a1.75 1.75 0 0 0 0-3.5h-20a1.75 1.75 0 0 0 0 3.5z"/></svg>