<?xml version="1.0" ?><svg style="enable-background:new 0 0 128 128;" version="1.1" viewBox="0 0 128 128" xml:space="preserve" xmlns="http://www.w3.org/2000/svg" xmlns:xlink="http://www.w3.org/1999/xlink"><g id="Train"/><g id="Car"/><g id="Taxi"/><g id="Truk"/><g id="Cruise"/><g id="Railway"/><g id="Trem"><path d="M92.4,32.8c-3.8-1.5-7.7-2.6-11.6-3.5l3.5-7.5L82.4,21l-3.5,7.5c-9.9-1.7-20.8-1.7-30.7,0L44.7,21l-1.8,0.8l3.7,7.9   c-3.4,0.8-6.7,1.8-10,3.1C36.3,33,36,33.3,36,33.8V42v17v19.4C36,84.8,41.2,90,47.6,90h33.8C87.8,90,93,84.8,93,78.4V59V42v-8.2   C93,33.3,92.7,33,92.4,32.8z M48.8,31.3c10.4-2.2,20.9-2.2,31.3,0c3.7,0.8,7.3,1.8,10.8,3.2V41H38v-6.6   C41.5,33.1,45.2,32.1,48.8,31.3z M91,58H65V43h26V58z M38,43h25v15H38V43z M81.4,88H47.6c-5.3,0-9.6-4.3-9.6-9.6V60h53v18.4   C91,83.7,86.7,88,81.4,88z"/><path d="M48,73c-2.8,0-5,2.2-5,5s2.2,5,5,5s5-2.2,5-5S50.8,73,48,73z M48,81c-1.7,0-3-1.3-3-3s1.3-3,3-3s3,1.3,3,3S49.7,81,48,81z"/><path d="M80,73c-2.8,0-5,2.2-5,5s2.2,5,5,5s5-2.2,5-5S82.8,73,80,73z M80,81c-1.7,0-3-1.3-3-3s1.3-3,3-3s3,1.3,3,3S81.7,81,80,81z"/><path d="M78.3,92.3c-0.2-0.2-0.4-0.3-0.7-0.3H51.7c-0.3,0-0.5,0.1-0.7,0.3l-13.7,14c-0.3,0.3-0.4,0.7-0.2,1.1s0.5,0.6,0.9,0.6h53.3   c0.4,0,0.8-0.2,0.9-0.6c0.2-0.4,0.1-0.8-0.2-1.1L78.3,92.3z M40.4,106l11.8-12h25l11.8,12H40.4z"/></g><g id="Bus"/><g id="Yatch"/><g id="pLANE"/><g id="Bicycle"/><g id="Halte"/><g id="Bus_Stop"/><g id="Station"/><g id="Airport"/><g id="Layer_17"/></svg>